<svg xmlns="http://www.w3.org/2000/svg" width="1927" height="690" fill="none" viewBox="0 0 1927 690"><path fill="#fff" d="M875.391 256.203C861.849 256.203 848.438 254.641 835.156 251.516C822.135 248.391 809.635 243.833 797.656 237.844C785.677 231.594 775.13 223.391 766.016 213.234C756.901 203.078 751.953 190.969 751.172 176.906V160.5V154.641C751.172 147.349 753.776 141.359 758.984 136.672C764.453 131.724 770.833 129.25 778.125 129.25C793.75 130.552 802.214 139.016 803.516 154.641V164.797C804.036 172.87 807.031 179.641 812.5 185.109C818.229 190.318 824.479 194.484 831.25 197.609C838.281 200.734 845.443 203.078 852.734 204.641C860.286 206.203 867.839 206.984 875.391 206.984C882.943 206.984 890.365 206.203 897.656 204.641C905.208 203.078 912.37 200.734 919.141 197.609C926.172 194.484 932.422 190.318 937.891 185.109C943.62 179.641 946.745 172.87 947.266 164.797V35.8906C947.266 28.599 949.87 22.6094 955.078 17.9219C960.547 12.974 966.927 10.5 974.219 10.5C989.844 11.8021 998.438 20.2656 1000 35.8906V160.5V176.906C999.219 190.969 994.141 203.078 984.766 213.234C975.651 223.391 965.104 231.594 953.125 237.844C941.146 243.833 928.516 248.391 915.234 251.516C902.214 254.641 888.932 256.203 875.391 256.203ZM1175 256.203C1161.46 256.203 1148.05 254.641 1134.77 251.516C1121.74 248.391 1109.24 243.833 1097.27 237.844C1085.29 231.594 1074.74 223.391 1065.62 213.234C1056.51 203.078 1051.56 190.969 1050.78 176.906V160.5V35.8906C1050.78 28.599 1053.39 22.6094 1058.59 17.9219C1064.06 12.974 1070.44 10.5 1077.73 10.5C1093.36 11.8021 1101.82 20.2656 1103.12 35.8906V164.797C1103.65 172.87 1106.64 179.641 1112.11 185.109C1117.84 190.318 1124.09 194.484 1130.86 197.609C1137.89 200.734 1145.05 203.078 1152.34 204.641C1159.9 206.203 1167.45 206.984 1175 206.984C1182.55 206.984 1189.97 206.203 1197.27 204.641C1204.82 203.078 1211.98 200.734 1218.75 197.609C1225.78 194.484 1232.03 190.318 1237.5 185.109C1243.23 179.641 1246.35 172.87 1246.88 164.797V35.8906C1246.88 28.599 1249.48 22.6094 1254.69 17.9219C1260.16 12.974 1266.54 10.5 1273.83 10.5C1289.45 11.8021 1298.05 20.2656 1299.61 35.8906V160.5V176.906C1298.83 190.969 1293.75 203.078 1284.38 213.234C1275.26 223.391 1264.71 231.594 1252.73 237.844C1240.76 243.833 1228.12 248.391 1214.84 251.516C1201.82 254.641 1188.54 256.203 1175 256.203ZM1604.3 42.9219C1604.3 50.2135 1601.69 56.3333 1596.48 61.2812C1591.54 66.4896 1585.42 69.0938 1578.12 69.0938H1421.88C1416.93 69.3542 1412.76 70.526 1409.38 72.6094C1406.25 74.4323 1403.91 76.6458 1402.34 79.25C1400.78 81.5938 1400 84.0677 1400 86.6719C1400 89.276 1400.78 91.8802 1402.34 94.4844C1403.91 96.8281 1406.25 99.0417 1409.38 101.125C1412.76 102.948 1416.93 103.99 1421.88 104.25H1532.81C1551.04 104.771 1566.02 109.068 1577.73 117.141C1589.71 124.953 1598.18 134.068 1603.12 144.484C1608.33 154.641 1610.94 165.057 1610.94 175.734C1610.94 186.151 1608.33 196.568 1603.12 206.984C1597.92 217.141 1589.45 226.255 1577.73 234.328C1566.02 242.141 1551.04 246.047 1532.81 246.047H1530.47C1528.91 246.307 1527.34 246.438 1525.78 246.438H1378.12C1370.83 246.438 1364.58 243.964 1359.38 239.016C1354.43 233.807 1351.95 227.557 1351.95 220.266C1351.95 212.974 1354.56 206.854 1359.77 201.906C1364.71 196.698 1370.83 194.094 1378.12 194.094H1535.16C1540.1 194.354 1544.14 193.443 1547.27 191.359C1550.65 189.276 1553.12 186.932 1554.69 184.328C1556.25 181.464 1557.03 178.599 1557.03 175.734C1557.03 173.911 1556.25 171.438 1554.69 168.312C1553.12 164.927 1550.65 162.193 1547.27 160.109C1544.14 158.026 1540.1 156.854 1535.16 156.594H1424.22C1405.99 156.073 1390.89 151.906 1378.91 144.094C1367.19 136.281 1358.72 127.427 1353.52 117.531C1348.57 107.375 1346.09 97.0885 1346.09 86.6719C1346.09 76.5156 1348.7 66.4896 1353.91 56.5938C1359.11 46.4375 1367.58 37.4531 1379.3 29.6406C1391.02 21.8281 1405.99 17.6615 1424.22 17.1406H1426.56C1428.12 16.8802 1429.69 16.75 1431.25 16.75H1578.12C1585.42 16.75 1591.54 19.3542 1596.48 24.5625C1601.69 29.5104 1604.3 35.6302 1604.3 42.9219ZM1647.27 42.9219C1647.27 35.6302 1649.74 29.5104 1654.69 24.5625C1659.9 19.3542 1666.15 16.75 1673.44 16.75H1900.78C1908.07 16.75 1914.32 19.224 1919.53 24.1719C1924.48 29.3802 1926.95 35.6302 1926.95 42.9219C1926.95 50.2135 1924.35 56.4635 1919.14 61.6719C1914.19 66.6198 1908.07 69.0938 1900.78 69.0938H1813.67V227.297C1812.11 242.922 1803.52 251.385 1787.89 252.688C1780.6 252.688 1774.22 250.344 1768.75 245.656C1763.54 240.708 1760.94 234.589 1760.94 227.297V69.0938H1673.44C1666.15 69.0938 1660.03 66.4896 1655.08 61.2812C1649.87 56.3333 1647.27 50.2135 1647.27 42.9219ZM800.781 410.5C808.073 410.5 814.323 412.974 819.531 417.922C824.74 422.609 827.474 428.599 827.734 435.891V530.031C827.474 540.708 828.125 550.604 829.688 559.719C831.51 568.573 835.677 576.516 842.188 583.547C848.698 590.578 856.901 594.354 866.797 594.875H991.797C999.089 595.135 1005.08 597.87 1009.77 603.078C1014.71 608.286 1017.19 614.536 1017.19 621.828C1016.93 628.859 1014.32 634.849 1009.38 639.797C1004.69 644.484 998.828 646.958 991.797 647.219H853.516C835.286 646.177 820.182 640.057 808.203 628.859C796.484 617.401 788.021 603.469 782.812 587.062C777.865 570.656 775.26 553.208 775 534.719V435.891C775.26 428.859 777.865 423 782.812 418.312C787.76 413.365 793.75 410.76 800.781 410.5ZM1046.09 621.047C1046.09 613.755 1048.57 607.635 1053.52 602.688C1058.72 597.479 1064.97 594.875 1072.27 594.875H1147.27V469.094H1072.27C1064.97 469.094 1058.85 466.49 1053.91 461.281C1048.7 456.333 1046.09 450.214 1046.09 442.922C1046.09 435.63 1048.57 429.51 1053.52 424.562C1058.72 419.354 1064.97 416.75 1072.27 416.75H1274.61C1281.9 416.75 1288.15 419.224 1293.36 424.172C1298.31 429.38 1300.78 435.63 1300.78 442.922C1300.78 450.214 1298.18 456.464 1292.97 461.672C1288.02 466.62 1281.9 469.094 1274.61 469.094H1200V594.875H1274.61C1281.9 594.875 1288.15 597.349 1293.36 602.297C1298.31 607.505 1300.78 613.755 1300.78 621.047C1300.78 628.339 1298.18 634.589 1292.97 639.797C1288.02 644.745 1281.9 647.219 1274.61 647.219H1072.27C1064.97 647.219 1058.85 644.615 1053.91 639.406C1048.7 634.458 1046.09 628.339 1046.09 621.047ZM1465.62 406.203C1479.17 406.203 1492.45 407.766 1505.47 410.891C1518.75 414.016 1531.38 418.703 1543.36 424.953C1555.34 430.943 1565.89 439.016 1575 449.172C1584.38 459.328 1589.45 471.438 1590.23 485.5V501.906V626.516C1588.67 642.141 1580.08 650.604 1564.45 651.906C1557.16 651.906 1550.78 649.562 1545.31 644.875C1540.1 639.927 1537.5 633.807 1537.5 626.516V497.609C1536.98 489.536 1533.85 482.896 1528.12 477.688C1522.66 472.219 1516.41 467.922 1509.38 464.797C1502.6 461.672 1495.44 459.328 1487.89 457.766C1480.6 456.203 1473.18 455.422 1465.62 455.422C1458.07 455.422 1450.52 456.203 1442.97 457.766C1435.68 459.328 1428.52 461.672 1421.48 464.797C1414.71 467.922 1408.46 472.219 1402.73 477.688C1397.27 482.896 1394.27 489.536 1393.75 497.609V626.516C1392.45 642.141 1383.98 650.604 1368.36 651.906C1361.07 651.906 1354.69 649.562 1349.22 644.875C1344.01 639.927 1341.41 633.807 1341.41 626.516V501.906V485.5C1342.19 471.438 1347.14 459.328 1356.25 449.172C1365.36 439.016 1375.91 430.943 1387.89 424.953C1399.87 418.703 1412.37 414.016 1425.39 410.891C1438.67 407.766 1452.08 406.203 1465.62 406.203ZM1666.41 410.5C1673.44 410.76 1679.43 413.365 1684.38 418.312C1689.32 423 1691.93 428.859 1692.19 435.891V627.297C1690.62 642.922 1682.03 651.385 1666.41 652.688C1659.11 652.688 1652.73 650.344 1647.27 645.656C1642.06 640.708 1639.45 634.589 1639.45 627.297V435.891C1639.71 428.599 1642.45 422.609 1647.66 417.922C1652.86 412.974 1659.11 410.5 1666.41 410.5ZM1733.2 479.25C1750.65 467.531 1774.22 455.682 1803.91 443.703L1867.97 416.359C1870.83 415.057 1873.96 414.276 1877.34 414.016C1884.64 413.495 1890.89 415.708 1896.09 420.656C1901.3 425.344 1903.91 431.464 1903.91 439.016C1903.91 447.609 1902.08 453.99 1898.44 458.156C1895.05 462.062 1890.62 465.318 1885.16 467.922L1830.47 488.625C1819.79 492.792 1809.64 496.958 1800 501.125C1790.62 505.031 1782.03 509.589 1774.22 514.797C1766.41 519.484 1762.24 524.823 1761.72 530.812C1762.24 536.542 1766.41 541.88 1774.22 546.828C1782.03 552.036 1790.62 556.724 1800 560.891C1809.64 564.797 1819.79 568.833 1830.47 573L1891.41 595.266C1896.88 597.87 1901.3 601.255 1904.69 605.422C1908.33 609.328 1910.16 615.578 1910.16 624.172C1910.16 631.724 1907.55 637.974 1902.34 642.922C1897.14 647.609 1890.89 649.693 1883.59 649.172C1880.21 648.911 1877.08 648.13 1874.22 646.828L1803.91 617.922C1774.22 605.943 1750.52 594.094 1732.81 582.375C1715.36 570.396 1706.51 553.208 1706.25 530.812C1706.51 508.417 1715.49 491.229 1733.2 479.25Z"/><circle cx="345" cy="345" r="345" fill="#000"/><path fill="#fff" d="M273.378 573L344.878 501.5L344.874 35.9999L273.374 107.5L273.378 573Z"/><path fill="#fff" d="M276.374 573L347.374 502L584.874 502.004L513.874 573.004L276.374 573Z"/><path fill="#fff" d="M271.074 573L271.074 489.176L134.399 391.676L134.399 451.938L271.074 573Z"/></svg>