<svg xmlns="http://www.w3.org/2000/svg" width="1935" height="693" fill="none" viewBox="0 0 1935 693"><path fill="#fff" d="M883.391 296.203C869.849 296.203 856.438 294.641 843.156 291.516C830.135 288.391 817.635 283.833 805.656 277.844C793.677 271.594 783.13 263.391 774.016 253.234C764.901 243.078 759.953 230.969 759.172 216.906V200.5V194.641C759.172 187.349 761.776 181.359 766.984 176.672C772.453 171.724 778.833 169.25 786.125 169.25C801.75 170.552 810.214 179.016 811.516 194.641V204.797C812.036 212.87 815.031 219.641 820.5 225.109C826.229 230.318 832.479 234.484 839.25 237.609C846.281 240.734 853.443 243.078 860.734 244.641C868.286 246.203 875.839 246.984 883.391 246.984C890.943 246.984 898.365 246.203 905.656 244.641C913.208 243.078 920.37 240.734 927.141 237.609C934.172 234.484 940.422 230.318 945.891 225.109C951.62 219.641 954.745 212.87 955.266 204.797V75.8906C955.266 68.599 957.87 62.6094 963.078 57.9219C968.547 52.974 974.927 50.5 982.219 50.5C997.844 51.8021 1006.44 60.2656 1008 75.8906V200.5V216.906C1007.22 230.969 1002.14 243.078 992.766 253.234C983.651 263.391 973.104 271.594 961.125 277.844C949.146 283.833 936.516 288.391 923.234 291.516C910.214 294.641 896.932 296.203 883.391 296.203ZM1612.3 82.9219C1612.3 90.2135 1609.69 96.3333 1604.48 101.281C1599.54 106.49 1593.42 109.094 1586.12 109.094H1429.88C1424.93 109.354 1420.76 110.526 1417.38 112.609C1414.25 114.432 1411.91 116.646 1410.34 119.25C1408.78 121.594 1408 124.068 1408 126.672C1408 129.276 1408.78 131.88 1410.34 134.484C1411.91 136.828 1414.25 139.042 1417.38 141.125C1420.76 142.948 1424.93 143.99 1429.88 144.25H1540.81C1559.04 144.771 1574.02 149.068 1585.73 157.141C1597.71 164.953 1606.18 174.068 1611.12 184.484C1616.33 194.641 1618.94 205.057 1618.94 215.734C1618.94 226.151 1616.33 236.568 1611.12 246.984C1605.92 257.141 1597.45 266.255 1585.73 274.328C1574.02 282.141 1559.04 286.047 1540.81 286.047H1538.47C1536.91 286.307 1535.34 286.438 1533.78 286.438H1386.12C1378.83 286.438 1372.58 283.964 1367.38 279.016C1362.43 273.807 1359.95 267.557 1359.95 260.266C1359.95 252.974 1362.56 246.854 1367.77 241.906C1372.71 236.698 1378.83 234.094 1386.12 234.094H1543.16C1548.1 234.354 1552.14 233.443 1555.27 231.359C1558.65 229.276 1561.12 226.932 1562.69 224.328C1564.25 221.464 1565.03 218.599 1565.03 215.734C1565.03 213.911 1564.25 211.438 1562.69 208.312C1561.12 204.927 1558.65 202.193 1555.27 200.109C1552.14 198.026 1548.1 196.854 1543.16 196.594H1432.22C1413.99 196.073 1398.89 191.906 1386.91 184.094C1375.19 176.281 1366.72 167.427 1361.52 157.531C1356.57 147.375 1354.09 137.089 1354.09 126.672C1354.09 116.516 1356.7 106.49 1361.91 96.5938C1367.11 86.4375 1375.58 77.4531 1387.3 69.6406C1399.02 61.8281 1413.99 57.6615 1432.22 57.1406H1434.56C1436.12 56.8802 1437.69 56.75 1439.25 56.75H1586.12C1593.42 56.75 1599.54 59.3542 1604.48 64.5625C1609.69 69.5104 1612.3 75.6302 1612.3 82.9219ZM1655.27 82.9219C1655.27 75.6302 1657.74 69.5104 1662.69 64.5625C1667.9 59.3542 1674.15 56.75 1681.44 56.75H1908.78C1916.07 56.75 1922.32 59.224 1927.53 64.1719C1932.48 69.3802 1934.95 75.6302 1934.95 82.9219C1934.95 90.2135 1932.35 96.4635 1927.14 101.672C1922.19 106.62 1916.07 109.094 1908.78 109.094H1821.67V267.297C1820.11 282.922 1811.52 291.385 1795.89 292.688C1788.6 292.688 1782.22 290.344 1776.75 285.656C1771.54 280.708 1768.94 274.589 1768.94 267.297V109.094H1681.44C1674.15 109.094 1668.03 106.49 1663.08 101.281C1657.87 96.3333 1655.27 90.2135 1655.27 82.9219ZM808.781 450.5C816.073 450.5 822.323 452.974 827.531 457.922C832.74 462.609 835.474 468.599 835.734 475.891V570.031C835.474 580.708 836.125 590.604 837.688 599.719C839.51 608.573 843.677 616.516 850.188 623.547C856.698 630.578 864.901 634.354 874.797 634.875H999.797C1007.09 635.135 1013.08 637.87 1017.77 643.078C1022.71 648.286 1025.19 654.536 1025.19 661.828C1024.93 668.859 1022.32 674.849 1017.38 679.797C1012.69 684.484 1006.83 686.958 999.797 687.219H861.516C843.286 686.177 828.182 680.057 816.203 668.859C804.484 657.401 796.021 643.469 790.812 627.062C785.865 610.656 783.26 593.208 783 574.719V475.891C783.26 468.859 785.865 463 790.812 458.312C795.76 453.365 801.75 450.76 808.781 450.5ZM1054.09 661.047C1054.09 653.755 1056.57 647.635 1061.52 642.688C1066.72 637.479 1072.97 634.875 1080.27 634.875H1155.27V509.094H1080.27C1072.97 509.094 1066.85 506.49 1061.91 501.281C1056.7 496.333 1054.09 490.214 1054.09 482.922C1054.09 475.63 1056.57 469.51 1061.52 464.562C1066.72 459.354 1072.97 456.75 1080.27 456.75H1282.61C1289.9 456.75 1296.15 459.224 1301.36 464.172C1306.31 469.38 1308.78 475.63 1308.78 482.922C1308.78 490.214 1306.18 496.464 1300.97 501.672C1296.02 506.62 1289.9 509.094 1282.61 509.094H1208V634.875H1282.61C1289.9 634.875 1296.15 637.349 1301.36 642.297C1306.31 647.505 1308.78 653.755 1308.78 661.047C1308.78 668.339 1306.18 674.589 1300.97 679.797C1296.02 684.745 1289.9 687.219 1282.61 687.219H1080.27C1072.97 687.219 1066.85 684.615 1061.91 679.406C1056.7 674.458 1054.09 668.339 1054.09 661.047ZM1674.41 450.5C1681.44 450.76 1687.43 453.365 1692.38 458.312C1697.32 463 1699.93 468.859 1700.19 475.891V667.297C1698.62 682.922 1690.03 691.385 1674.41 692.688C1667.11 692.688 1660.73 690.344 1655.27 685.656C1650.06 680.708 1647.45 674.589 1647.45 667.297V475.891C1647.71 468.599 1650.45 462.609 1655.66 457.922C1660.86 452.974 1667.11 450.5 1674.41 450.5ZM1741.2 519.25C1758.65 507.531 1782.22 495.682 1811.91 483.703L1875.97 456.359C1878.83 455.057 1881.96 454.276 1885.34 454.016C1892.64 453.495 1898.89 455.708 1904.09 460.656C1909.3 465.344 1911.91 471.464 1911.91 479.016C1911.91 487.609 1910.08 493.99 1906.44 498.156C1903.05 502.062 1898.62 505.318 1893.16 507.922L1838.47 528.625C1827.79 532.792 1817.64 536.958 1808 541.125C1798.62 545.031 1790.03 549.589 1782.22 554.797C1774.41 559.484 1770.24 564.823 1769.72 570.812C1770.24 576.542 1774.41 581.88 1782.22 586.828C1790.03 592.036 1798.62 596.724 1808 600.891C1817.64 604.797 1827.79 608.833 1838.47 613L1899.41 635.266C1904.88 637.87 1909.3 641.255 1912.69 645.422C1916.33 649.328 1918.16 655.578 1918.16 664.172C1918.16 671.724 1915.55 677.974 1910.34 682.922C1905.14 687.609 1898.89 689.693 1891.59 689.172C1888.21 688.911 1885.08 688.13 1882.22 686.828L1811.91 657.922C1782.22 645.943 1758.52 634.094 1740.81 622.375C1723.36 610.396 1714.51 593.208 1714.25 570.812C1714.51 548.417 1723.49 531.229 1741.2 519.25Z"/><path fill="#DB2941" d="M1183 296.203C1169.46 296.203 1156.05 294.641 1142.77 291.516C1129.74 288.391 1117.24 283.833 1105.27 277.844C1093.29 271.594 1082.74 263.391 1073.62 253.234C1064.51 243.078 1059.56 230.969 1058.78 216.906V200.5V75.8906C1058.78 68.599 1061.39 62.6094 1066.59 57.9219C1072.06 52.974 1078.44 50.5 1085.73 50.5C1101.36 51.8021 1109.82 60.2656 1111.12 75.8906V204.797C1111.65 212.87 1114.64 219.641 1120.11 225.109C1125.84 230.318 1132.09 234.484 1138.86 237.609C1145.89 240.734 1153.05 243.078 1160.34 244.641C1167.9 246.203 1175.45 246.984 1183 246.984C1190.55 246.984 1197.97 246.203 1205.27 244.641C1212.82 243.078 1219.98 240.734 1226.75 237.609C1233.78 234.484 1240.03 230.318 1245.5 225.109C1251.23 219.641 1254.35 212.87 1254.88 204.797V75.8906C1254.88 68.599 1257.48 62.6094 1262.69 57.9219C1268.16 52.974 1274.54 50.5 1281.83 50.5C1297.45 51.8021 1306.05 60.2656 1307.61 75.8906V200.5V216.906C1306.83 230.969 1301.75 243.078 1292.38 253.234C1283.26 263.391 1272.71 271.594 1260.73 277.844C1248.76 283.833 1236.12 288.391 1222.84 291.516C1209.82 294.641 1196.54 296.203 1183 296.203ZM1473.62 446.203C1487.17 446.203 1500.45 447.766 1513.47 450.891C1526.75 454.016 1539.38 458.703 1551.36 464.953C1563.34 470.943 1573.89 479.016 1583 489.172C1592.38 499.328 1597.45 511.438 1598.23 525.5V541.906V666.516C1596.67 682.141 1588.08 690.604 1572.45 691.906C1565.16 691.906 1558.78 689.562 1553.31 684.875C1548.1 679.927 1545.5 673.807 1545.5 666.516V537.609C1544.98 529.536 1541.85 522.896 1536.12 517.688C1530.66 512.219 1524.41 507.922 1517.38 504.797C1510.6 501.672 1503.44 499.328 1495.89 497.766C1488.6 496.203 1481.18 495.422 1473.62 495.422C1466.07 495.422 1458.52 496.203 1450.97 497.766C1443.68 499.328 1436.52 501.672 1429.48 504.797C1422.71 507.922 1416.46 512.219 1410.73 517.688C1405.27 522.896 1402.27 529.536 1401.75 537.609V666.516C1400.45 682.141 1391.98 690.604 1376.36 691.906C1369.07 691.906 1362.69 689.562 1357.22 684.875C1352.01 679.927 1349.41 673.807 1349.41 666.516V541.906V525.5C1350.19 511.438 1355.14 499.328 1364.25 489.172C1373.36 479.016 1383.91 470.943 1395.89 464.953C1407.87 458.703 1420.37 454.016 1433.39 450.891C1446.67 447.766 1460.08 446.203 1473.62 446.203Z"/><circle cx="345" cy="345" r="345" fill="#DB2941"/><path fill="#fff" stroke="#fff" stroke-width="10" d="M326.902 505.693L326.899 54.334L266.278 114.955C265.716 115.518 265.4 116.281 265.399 117.076L265.402 567.193L326.902 505.693Z"/><path fill="#fff" stroke="#fff" stroke-width="10" d="M336.469 513.264L559.828 513.267L499.707 573.388C499.145 573.95 498.381 574.267 497.586 574.267L275.469 574.264L336.469 513.264Z"/><path fill="#fff" stroke="#fff" stroke-width="10" d="M253.099 498.014L126.424 407.649L126.425 454.6C126.425 455.459 126.793 456.276 127.436 456.845L253.1 568.155L253.099 498.014Z"/></svg>