<svg width="1909" height="662" viewBox="0 0 1909 662" fill="none" xmlns="http://www.w3.org/2000/svg">
<path d="M857.391 246.203C843.849 246.203 830.438 244.641 817.156 241.516C804.135 238.391 791.635 233.833 779.656 227.844C767.677 221.594 757.13 213.391 748.016 203.234C738.901 193.078 733.953 180.969 733.172 166.906V150.5V144.641C733.172 137.349 735.776 131.359 740.984 126.672C746.453 121.724 752.833 119.25 760.125 119.25C775.75 120.552 784.214 129.016 785.516 144.641V154.797C786.036 162.87 789.031 169.641 794.5 175.109C800.229 180.318 806.479 184.484 813.25 187.609C820.281 190.734 827.443 193.078 834.734 194.641C842.286 196.203 849.839 196.984 857.391 196.984C864.943 196.984 872.365 196.203 879.656 194.641C887.208 193.078 894.37 190.734 901.141 187.609C908.172 184.484 914.422 180.318 919.891 175.109C925.62 169.641 928.745 162.87 929.266 154.797V25.8906C929.266 18.599 931.87 12.6094 937.078 7.92188C942.547 2.97396 948.927 0.5 956.219 0.5C971.844 1.80208 980.438 10.2656 982 25.8906V150.5V166.906C981.219 180.969 976.141 193.078 966.766 203.234C957.651 213.391 947.104 221.594 935.125 227.844C923.146 233.833 910.516 238.391 897.234 241.516C884.214 244.641 870.932 246.203 857.391 246.203ZM1157 246.203C1143.46 246.203 1130.05 244.641 1116.77 241.516C1103.74 238.391 1091.24 233.833 1079.27 227.844C1067.29 221.594 1056.74 213.391 1047.62 203.234C1038.51 193.078 1033.56 180.969 1032.78 166.906V150.5V25.8906C1032.78 18.599 1035.39 12.6094 1040.59 7.92188C1046.06 2.97396 1052.44 0.5 1059.73 0.5C1075.36 1.80208 1083.82 10.2656 1085.12 25.8906V154.797C1085.65 162.87 1088.64 169.641 1094.11 175.109C1099.84 180.318 1106.09 184.484 1112.86 187.609C1119.89 190.734 1127.05 193.078 1134.34 194.641C1141.9 196.203 1149.45 196.984 1157 196.984C1164.55 196.984 1171.97 196.203 1179.27 194.641C1186.82 193.078 1193.98 190.734 1200.75 187.609C1207.78 184.484 1214.03 180.318 1219.5 175.109C1225.23 169.641 1228.35 162.87 1228.88 154.797V25.8906C1228.88 18.599 1231.48 12.6094 1236.69 7.92188C1242.16 2.97396 1248.54 0.5 1255.83 0.5C1271.45 1.80208 1280.05 10.2656 1281.61 25.8906V150.5V166.906C1280.83 180.969 1275.75 193.078 1266.38 203.234C1257.26 213.391 1246.71 221.594 1234.73 227.844C1222.76 233.833 1210.12 238.391 1196.84 241.516C1183.82 244.641 1170.54 246.203 1157 246.203ZM1586.3 32.9219C1586.3 40.2135 1583.69 46.3333 1578.48 51.2812C1573.54 56.4896 1567.42 59.0938 1560.12 59.0938H1403.88C1398.93 59.3542 1394.76 60.526 1391.38 62.6094C1388.25 64.4323 1385.91 66.6458 1384.34 69.25C1382.78 71.5938 1382 74.0677 1382 76.6719C1382 79.276 1382.78 81.8802 1384.34 84.4844C1385.91 86.8281 1388.25 89.0417 1391.38 91.125C1394.76 92.9479 1398.93 93.9896 1403.88 94.25H1514.81C1533.04 94.7708 1548.02 99.0677 1559.73 107.141C1571.71 114.953 1580.18 124.068 1585.12 134.484C1590.33 144.641 1592.94 155.057 1592.94 165.734C1592.94 176.151 1590.33 186.568 1585.12 196.984C1579.92 207.141 1571.45 216.255 1559.73 224.328C1548.02 232.141 1533.04 236.047 1514.81 236.047H1512.47C1510.91 236.307 1509.34 236.438 1507.78 236.438H1360.12C1352.83 236.438 1346.58 233.964 1341.38 229.016C1336.43 223.807 1333.95 217.557 1333.95 210.266C1333.95 202.974 1336.56 196.854 1341.77 191.906C1346.71 186.698 1352.83 184.094 1360.12 184.094H1517.16C1522.1 184.354 1526.14 183.443 1529.27 181.359C1532.65 179.276 1535.12 176.932 1536.69 174.328C1538.25 171.464 1539.03 168.599 1539.03 165.734C1539.03 163.911 1538.25 161.438 1536.69 158.312C1535.12 154.927 1532.65 152.193 1529.27 150.109C1526.14 148.026 1522.1 146.854 1517.16 146.594H1406.22C1387.99 146.073 1372.89 141.906 1360.91 134.094C1349.19 126.281 1340.72 117.427 1335.52 107.531C1330.57 97.375 1328.09 87.0885 1328.09 76.6719C1328.09 66.5156 1330.7 56.4896 1335.91 46.5938C1341.11 36.4375 1349.58 27.4531 1361.3 19.6406C1373.02 11.8281 1387.99 7.66146 1406.22 7.14062H1408.56C1410.12 6.88021 1411.69 6.75 1413.25 6.75H1560.12C1567.42 6.75 1573.54 9.35417 1578.48 14.5625C1583.69 19.5104 1586.3 25.6302 1586.3 32.9219ZM1629.27 32.9219C1629.27 25.6302 1631.74 19.5104 1636.69 14.5625C1641.9 9.35417 1648.15 6.75 1655.44 6.75H1882.78C1890.07 6.75 1896.32 9.22396 1901.53 14.1719C1906.48 19.3802 1908.95 25.6302 1908.95 32.9219C1908.95 40.2135 1906.35 46.4635 1901.14 51.6719C1896.19 56.6198 1890.07 59.0938 1882.78 59.0938H1795.67V217.297C1794.11 232.922 1785.52 241.385 1769.89 242.688C1762.6 242.688 1756.22 240.344 1750.75 235.656C1745.54 230.708 1742.94 224.589 1742.94 217.297V59.0938H1655.44C1648.15 59.0938 1642.03 56.4896 1637.08 51.2812C1631.87 46.3333 1629.27 40.2135 1629.27 32.9219ZM782.781 400.5C790.073 400.5 796.323 402.974 801.531 407.922C806.74 412.609 809.474 418.599 809.734 425.891V520.031C809.474 530.708 810.125 540.604 811.688 549.719C813.51 558.573 817.677 566.516 824.188 573.547C830.698 580.578 838.901 584.354 848.797 584.875H973.797C981.089 585.135 987.078 587.87 991.766 593.078C996.714 598.286 999.188 604.536 999.188 611.828C998.927 618.859 996.323 624.849 991.375 629.797C986.688 634.484 980.828 636.958 973.797 637.219H835.516C817.286 636.177 802.182 630.057 790.203 618.859C778.484 607.401 770.021 593.469 764.812 577.062C759.865 560.656 757.26 543.208 757 524.719V425.891C757.26 418.859 759.865 413 764.812 408.312C769.76 403.365 775.75 400.76 782.781 400.5ZM1028.09 611.047C1028.09 603.755 1030.57 597.635 1035.52 592.688C1040.72 587.479 1046.97 584.875 1054.27 584.875H1129.27V459.094H1054.27C1046.97 459.094 1040.85 456.49 1035.91 451.281C1030.7 446.333 1028.09 440.214 1028.09 432.922C1028.09 425.63 1030.57 419.51 1035.52 414.562C1040.72 409.354 1046.97 406.75 1054.27 406.75H1256.61C1263.9 406.75 1270.15 409.224 1275.36 414.172C1280.31 419.38 1282.78 425.63 1282.78 432.922C1282.78 440.214 1280.18 446.464 1274.97 451.672C1270.02 456.62 1263.9 459.094 1256.61 459.094H1182V584.875H1256.61C1263.9 584.875 1270.15 587.349 1275.36 592.297C1280.31 597.505 1282.78 603.755 1282.78 611.047C1282.78 618.339 1280.18 624.589 1274.97 629.797C1270.02 634.745 1263.9 637.219 1256.61 637.219H1054.27C1046.97 637.219 1040.85 634.615 1035.91 629.406C1030.7 624.458 1028.09 618.339 1028.09 611.047ZM1447.62 396.203C1461.17 396.203 1474.45 397.766 1487.47 400.891C1500.75 404.016 1513.38 408.703 1525.36 414.953C1537.34 420.943 1547.89 429.016 1557 439.172C1566.38 449.328 1571.45 461.438 1572.23 475.5V491.906V616.516C1570.67 632.141 1562.08 640.604 1546.45 641.906C1539.16 641.906 1532.78 639.562 1527.31 634.875C1522.1 629.927 1519.5 623.807 1519.5 616.516V487.609C1518.98 479.536 1515.85 472.896 1510.12 467.688C1504.66 462.219 1498.41 457.922 1491.38 454.797C1484.6 451.672 1477.44 449.328 1469.89 447.766C1462.6 446.203 1455.18 445.422 1447.62 445.422C1440.07 445.422 1432.52 446.203 1424.97 447.766C1417.68 449.328 1410.52 451.672 1403.48 454.797C1396.71 457.922 1390.46 462.219 1384.73 467.688C1379.27 472.896 1376.27 479.536 1375.75 487.609V616.516C1374.45 632.141 1365.98 640.604 1350.36 641.906C1343.07 641.906 1336.69 639.562 1331.22 634.875C1326.01 629.927 1323.41 623.807 1323.41 616.516V491.906V475.5C1324.19 461.438 1329.14 449.328 1338.25 439.172C1347.36 429.016 1357.91 420.943 1369.89 414.953C1381.87 408.703 1394.37 404.016 1407.39 400.891C1420.67 397.766 1434.08 396.203 1447.62 396.203ZM1648.41 400.5C1655.44 400.76 1661.43 403.365 1666.38 408.312C1671.32 413 1673.93 418.859 1674.19 425.891V617.297C1672.62 632.922 1664.03 641.385 1648.41 642.688C1641.11 642.688 1634.73 640.344 1629.27 635.656C1624.06 630.708 1621.45 624.589 1621.45 617.297V425.891C1621.71 418.599 1624.45 412.609 1629.66 407.922C1634.86 402.974 1641.11 400.5 1648.41 400.5ZM1715.2 469.25C1732.65 457.531 1756.22 445.682 1785.91 433.703L1849.97 406.359C1852.83 405.057 1855.96 404.276 1859.34 404.016C1866.64 403.495 1872.89 405.708 1878.09 410.656C1883.3 415.344 1885.91 421.464 1885.91 429.016C1885.91 437.609 1884.08 443.99 1880.44 448.156C1877.05 452.062 1872.62 455.318 1867.16 457.922L1812.47 478.625C1801.79 482.792 1791.64 486.958 1782 491.125C1772.62 495.031 1764.03 499.589 1756.22 504.797C1748.41 509.484 1744.24 514.823 1743.72 520.812C1744.24 526.542 1748.41 531.88 1756.22 536.828C1764.03 542.036 1772.62 546.724 1782 550.891C1791.64 554.797 1801.79 558.833 1812.47 563L1873.41 585.266C1878.88 587.87 1883.3 591.255 1886.69 595.422C1890.33 599.328 1892.16 605.578 1892.16 614.172C1892.16 621.724 1889.55 627.974 1884.34 632.922C1879.14 637.609 1872.89 639.693 1865.59 639.172C1862.21 638.911 1859.08 638.13 1856.22 636.828L1785.91 607.922C1756.22 595.943 1732.52 584.094 1714.81 572.375C1697.36 560.396 1688.51 543.208 1688.25 520.812C1688.51 498.417 1697.49 481.229 1715.2 469.25Z" fill="white"/>
<rect y="8" width="654" height="654" rx="35" fill="black"/>
<path d="M255.878 598L327.378 526.5L327.374 60.9999L255.874 132.5L255.878 598Z" fill="white"/>
<path d="M258.874 598L329.874 527L567.374 527.004L496.374 598.004L258.874 598Z" fill="white"/>
<path d="M253.574 598L253.574 514.176L116.899 416.676L116.899 476.938L253.574 598Z" fill="white"/>
</svg>
